<?xml version="1.0" standalone="no"?>
<!DOCTYPE svg PUBLIC "-//W3C//DTD SVG 20010904//EN"
 "http://www.w3.org/TR/2001/REC-SVG-20010904/DTD/svg10.dtd">
<svg version="1.0" xmlns="http://www.w3.org/2000/svg"
 width="1400.000000pt" height="1400.000000pt" viewBox="0 0 1400.000000 1400.000000"
 preserveAspectRatio="xMidYMid meet">
<metadata>
Created by potrace 1.11, written by Peter Selinger 2001-2013
</metadata>
<g transform="translate(0.000000,1400.000000) scale(0.100000,-0.100000)"
fill="#000000" stroke="none">
<path d="M7200 13746 c-87 -30 -153 -73 -300 -198 -119 -100 -265 -220 -325
-266 -162 -124 -425 -289 -660 -412 -336 -177 -393 -210 -472 -272 -68 -54
-109 -101 -142 -165 -22 -40 -22 -43 -5 -99 34 -117 24 -277 -32 -499 -51
-204 -90 -329 -221 -705 -36 -102 -73 -210 -83 -240 -10 -30 -57 -167 -105
-305 -47 -137 -100 -288 -115 -335 -16 -47 -59 -170 -95 -275 -37 -104 -72
-208 -80 -230 -7 -22 -47 -139 -89 -260 -42 -121 -107 -310 -145 -420 -38
-110 -90 -258 -114 -330 -25 -71 -91 -260 -145 -420 -55 -159 -142 -409 -192
-555 -50 -146 -107 -310 -125 -365 -19 -55 -61 -179 -95 -275 -34 -96 -88
-254 -122 -350 -132 -386 -170 -495 -248 -720 -45 -129 -108 -311 -140 -405
-32 -93 -95 -276 -140 -405 -44 -129 -112 -325 -150 -435 -37 -110 -106 -310
-153 -445 -99 -285 -104 -300 -167 -485 -27 -77 -83 -239 -125 -360 -42 -121
-87 -251 -100 -290 -87 -260 -218 -628 -299 -845 -77 -207 -235 -561 -303
-680 -115 -202 -103 -183 -182 -294 -143 -202 -301 -341 -486 -426 -46 -22
-197 -74 -336 -115 -139 -42 -265 -83 -279 -90 -36 -19 -64 -54 -83 -101 -21
-56 -21 -316 0 -390 l15 -52 66 4 c37 1 117 6 177 9 61 3 155 8 210 10 55 2
141 7 190 10 50 3 140 7 200 10 61 3 146 7 190 10 213 12 554 19 995 18 513 0
735 -5 1155 -28 88 -5 245 -12 435 -20 147 -7 328 -15 402 -20 l67 -4 6 37 c4
20 11 60 18 87 6 28 11 111 12 185 0 163 -12 197 -80 230 -38 19 -237 65 -559
130 -176 36 -255 64 -356 127 -69 43 -164 142 -209 217 -122 204 -157 535 -96
910 22 135 24 145 41 221 9 39 18 81 20 95 3 14 12 50 20 80 8 30 21 78 28
105 28 107 95 313 396 1215 206 617 319 943 333 958 12 13 45 39 73 57 l52 35
2081 0 c1381 0 2089 -3 2106 -10 59 -22 75 -54 175 -337 45 -125 94 -264 110
-308 16 -44 56 -159 90 -255 34 -96 65 -184 70 -195 4 -11 23 -63 40 -115 17
-52 35 -104 40 -115 5 -11 22 -58 39 -105 158 -450 214 -608 221 -625 5 -11
54 -141 109 -290 352 -954 409 -1198 325 -1385 -41 -91 -120 -154 -258 -204
-58 -21 -197 -56 -276 -70 -14 -2 -45 -9 -70 -15 -69 -16 -271 -59 -309 -66
-19 -3 -37 -7 -40 -9 -8 -5 -108 -23 -138 -25 -6 -1 -25 -13 -42 -27 -82 -68
-87 -318 -12 -489 l19 -43 64 3 c62 3 234 11 453 20 180 8 349 14 535 20 96 3
229 8 295 10 865 29 1908 25 2785 -9 80 -3 215 -8 300 -11 85 -3 202 -7 260
-10 175 -7 381 -17 453 -20 57 -3 67 0 68 13 1 10 3 31 6 47 15 107 -4 329
-33 392 -17 35 -62 73 -109 91 -16 6 -97 30 -180 52 -82 22 -172 47 -200 54
-27 8 -91 26 -142 40 -110 30 -165 55 -258 114 -134 85 -276 246 -401 452 -61
101 -217 408 -279 550 -20 47 -47 108 -59 135 -26 56 -251 619 -316 790 -23
61 -49 125 -57 143 -8 18 -25 61 -37 95 -13 34 -80 206 -149 382 -237 605
-384 981 -469 1200 -28 72 -56 144 -63 160 -7 17 -29 71 -48 120 -81 211 -159
411 -168 430 -10 23 -221 562 -254 650 -13 33 -37 96 -55 140 -18 44 -47 118
-65 165 -18 47 -138 355 -267 685 -130 330 -288 735 -353 900 -64 165 -123
314 -131 332 -8 17 -14 34 -14 38 0 4 -6 21 -14 38 -8 18 -26 61 -39 97 -36
92 -119 305 -235 600 -87 222 -170 433 -409 1045 -30 77 -74 190 -98 250 -24
61 -68 175 -99 255 -31 80 -61 154 -65 165 -10 21 -23 57 -151 395 -226 595
-409 1082 -476 1270 -25 69 -48 132 -51 140 -53 136 -212 613 -282 845 l-57
190 -64 35 c-58 31 -74 35 -150 36 -66 2 -100 -3 -150 -20z m-1112 -2662 c12
-32 35 -95 51 -139 16 -44 86 -235 156 -425 70 -190 138 -376 152 -415 13 -38
29 -79 33 -90 8 -17 160 -429 295 -800 18 -49 65 -178 105 -285 39 -107 76
-208 82 -225 5 -16 14 -39 18 -50 5 -11 40 -105 79 -210 80 -221 208 -570 256
-700 183 -495 299 -811 426 -1160 38 -104 72 -197 76 -205 3 -8 7 -17 8 -20 5
-21 19 -60 30 -85 8 -16 20 -50 28 -75 9 -25 25 -70 37 -100 14 -36 19 -65 15
-87 -7 -39 -48 -91 -84 -106 -18 -7 -525 -11 -1695 -11 l-1669 -1 -38 45 c-82
96 -83 70 16 375 47 149 93 288 100 310 8 22 62 189 121 370 163 505 204 633
234 725 15 47 53 166 85 265 31 99 62 194 68 210 7 17 12 32 12 35 1 3 31 100
69 215 37 116 86 266 108 335 22 69 48 150 59 180 10 30 68 210 129 400 61
190 131 406 156 480 25 74 46 142 48 150 2 8 59 184 126 390 67 206 133 410
145 453 13 42 27 82 30 87 3 6 8 18 10 27 2 10 15 51 29 91 14 39 23 72 20 72
-3 0 0 9 6 19 18 34 43 18 68 -45z"/>
</g>
</svg>
